<svg width="46" height="46" viewBox="0 0 46 46" fill="none" xmlns="http://www.w3.org/2000/svg">
<path d="M42.1666 32.43V38.18C42.1688 38.7138 42.0594 39.2422 41.8456 39.7313C41.6317 40.2203 41.3181 40.6594 40.9248 41.0202C40.5314 41.3811 40.0671 41.6558 39.5614 41.8269C39.0557 41.9979 38.5199 42.0614 37.9883 42.0133C32.0904 41.3725 26.425 39.3571 21.4475 36.1292C16.8165 33.1864 12.8902 29.2602 9.94745 24.6292C6.70824 19.629 4.69242 13.9361 4.06329 8.01167C4.01539 7.48165 4.07838 6.94746 4.24825 6.44311C4.41811 5.93877 4.69113 5.47532 5.04992 5.08228C5.40871 4.68923 5.84541 4.37519 6.33222 4.16017C6.81903 3.94514 7.34527 3.83384 7.87745 3.83333H13.6275C14.5576 3.82418 15.4594 4.15357 16.1647 4.76011C16.8699 5.36664 17.3306 6.20894 17.4608 7.13C17.7035 8.97013 18.1536 10.7769 18.8025 12.5158C19.0603 13.2019 19.1161 13.9474 18.9633 14.6642C18.8104 15.381 18.4553 16.0389 17.94 16.56L15.5058 18.9942C18.2343 23.7926 22.2073 27.7657 27.0058 30.4942L29.44 28.06C29.9611 27.5447 30.619 27.1895 31.3358 27.0367C32.0525 26.8838 32.7981 26.9396 33.4841 27.1975C35.2231 27.8464 37.0298 28.2965 38.87 28.5392C39.801 28.6705 40.6513 29.1395 41.2591 29.8569C41.867 30.5743 42.1899 31.49 42.1666 32.43Z" stroke="#FEE300" stroke-width="2" stroke-linecap="round" stroke-linejoin="round"/>
<path d="M26.9292 3.83333C30.8359 4.24497 34.485 5.97769 37.2732 8.74494C40.0613 11.5122 41.8215 15.1482 42.2625 19.0517" stroke="#FEE300" stroke-width="2" stroke-linecap="round" stroke-linejoin="round"/>
<path d="M26.9292 11.5C28.8143 11.8717 30.5441 12.8015 31.8941 14.1686C33.2441 15.5357 34.1521 17.2771 34.5 19.1667" stroke="#FEE300" stroke-width="2" stroke-linecap="round" stroke-linejoin="round"/>
</svg>
