<?xml version="1.0" standalone="no"?>
<!DOCTYPE svg PUBLIC "-//W3C//DTD SVG 20010904//EN"
 "http://www.w3.org/TR/2001/REC-SVG-20010904/DTD/svg10.dtd">
<svg version="1.0" xmlns="http://www.w3.org/2000/svg"
 width="512.000000pt" height="512.000000pt" viewBox="0 0 512.000000 512.000000"
 preserveAspectRatio="xMidYMid meet">
<metadata>
Created by potrace 1.16, written by Peter Selinger 2001-2019
</metadata>
<g transform="translate(0.000000,512.000000) scale(0.100000,-0.100000)"
fill="#000000" stroke="none">
<path d="M1590 5113 c-19 -2 -80 -13 -135 -24 -635 -126 -1159 -589 -1365
-1206 -74 -223 -84 -295 -84 -578 0 -283 10 -355 84 -576 233 -700 873 -1197
1594 -1238 117 -7 327 2 367 14 18 6 19 -1 19 -272 0 -209 3 -283 13 -294 6
-9 341 -223 743 -477 570 -360 739 -462 764 -462 23 0 240 110 753 381 397
210 733 392 747 406 l25 23 3 719 2 719 -22 26 c-18 21 -899 508 -1385 767
-72 38 -101 58 -98 69 12 44 16 249 6 350 -24 242 -80 440 -180 645 -266 541
-770 910 -1369 1000 -90 14 -388 18 -482 8z m423 -168 c630 -83 1162 -519
1361 -1116 68 -203 81 -288 80 -529 -1 -118 -5 -228 -11 -244 -10 -32 -4 -29
-863 -483 -256 -135 -475 -255 -487 -266 -23 -20 -23 -22 -23 -327 l0 -307
-77 -7 c-130 -11 -311 -7 -419 9 -865 129 -1493 928 -1405 1788 41 391 202
730 480 1007 70 69 166 153 214 187 185 130 424 231 643 272 182 34 333 39
507 16z m2239 -2390 l607 -329 -165 -89 -164 -89 -618 338 c-339 186 -625 343
-635 350 -16 10 3 23 145 97 l163 86 30 -18 c17 -9 303 -165 637 -346z m-487
-269 l680 -373 3 -190 2 -189 -90 -57 -90 -56 0 182 c0 143 -3 187 -14 203 -8
12 -314 184 -680 384 -367 200 -666 367 -666 370 0 6 160 99 170 99 3 0 311
-167 685 -373z m-390 -180 l636 -344 -63 -35 c-263 -144 -351 -188 -366 -182
-57 21 -1249 702 -1242 709 18 18 376 204 387 201 7 -2 298 -159 648 -349z
m-388 -423 l512 -288 1 -583 0 -584 -29 19 c-16 10 -301 191 -635 403 l-605
385 -1 537 0 537 123 -69 c67 -38 352 -199 634 -357z m1953 -196 l0 -593 -67
-36 c-38 -20 -295 -156 -573 -303 -278 -147 -533 -283 -567 -302 l-63 -34 0
583 0 583 213 116 212 117 5 -189 c5 -177 6 -190 27 -210 13 -13 34 -22 51
-22 31 0 389 191 414 220 10 12 14 77 18 252 l5 236 160 87 c88 48 161 88 163
88 1 0 2 -267 2 -593z"/>
<path d="M1759 4811 c-22 -17 -24 -29 -27 -116 -2 -52 -1 -107 2 -120 15 -60
90 -85 137 -46 23 18 24 25 24 141 0 116 -1 123 -24 141 -30 24 -82 24 -112 0z"/>
<path d="M2490 4637 c-32 -16 -120 -172 -120 -213 0 -49 34 -84 81 -84 48 0
63 14 117 113 56 101 56 154 1 182 -34 18 -47 18 -79 2z"/>
<path d="M1015 4605 c-35 -34 -31 -65 21 -161 49 -91 73 -114 117 -114 40 0
62 14 77 50 12 29 10 37 -30 116 -61 121 -73 134 -121 134 -29 0 -47 -7 -64
-25z"/>
<path d="M1772 4310 c-12 -5 -27 -21 -32 -35 -6 -15 -10 -158 -10 -341 l0
-314 -27 -10 c-113 -41 -193 -143 -209 -266 -8 -70 10 -151 52 -219 l34 -58
-140 -237 c-107 -181 -140 -246 -140 -272 0 -43 16 -66 56 -77 64 -18 77 -3
234 263 127 216 147 245 165 239 11 -3 48 -6 82 -5 190 2 336 181 302 369 -22
115 -88 205 -185 250 l-53 24 -3 329 c-3 365 -2 356 -69 365 -19 3 -44 0 -57
-5z m118 -871 c75 -42 102 -143 57 -210 -33 -48 -83 -79 -130 -79 -118 0 -198
137 -134 231 51 77 133 99 207 58z"/>
<path d="M506 4099 c-21 -16 -26 -29 -26 -64 0 -25 6 -50 15 -58 27 -28 183
-107 209 -107 41 0 76 41 76 89 0 46 -17 61 -132 124 -76 42 -105 45 -142 16z"/>
<path d="M2948 4077 c-100 -56 -118 -73 -118 -112 0 -46 27 -75 75 -81 34 -4
53 3 125 43 99 56 118 83 100 138 -23 68 -74 72 -182 12z"/>
<path d="M333 3380 c-45 -19 -58 -90 -24 -131 18 -22 28 -24 130 -27 l111 -4
30 30 c35 36 39 78 11 113 -18 22 -27 24 -128 26 -59 2 -118 -2 -130 -7z"/>
<path d="M3040 3362 c-32 -32 -37 -56 -19 -95 17 -37 50 -47 158 -47 84 0 102
3 125 21 21 16 26 29 26 63 0 69 -20 80 -151 84 l-109 4 -30 -30z"/>
<path d="M592 2681 c-46 -26 -88 -54 -93 -62 -5 -8 -9 -30 -9 -50 0 -45 33
-79 77 -79 32 0 188 80 211 108 21 27 15 86 -11 110 -37 34 -80 28 -175 -27z"/>
<path d="M1123 2265 c-31 -22 -113 -177 -113 -215 0 -38 41 -80 80 -80 41 0
74 32 119 115 51 92 55 143 15 174 -31 25 -71 27 -101 6z"/>
<path d="M1773 2098 c-35 -17 -45 -58 -41 -166 4 -121 16 -142 84 -142 34 0
47 5 63 26 18 23 21 41 21 131 0 102 -1 105 -29 134 -31 30 -60 35 -98 17z"/>
<path d="M2395 1635 c-31 -30 -34 -94 -7 -117 9 -9 211 -127 449 -262 307
-175 441 -246 463 -246 20 0 40 9 57 26 21 21 24 32 20 62 -4 19 -12 41 -19
48 -7 7 -209 125 -447 263 -290 167 -444 251 -463 251 -17 0 -39 -10 -53 -25z"/>
<path d="M2385 1325 c-30 -29 -33 -83 -7 -113 27 -32 873 -516 909 -520 68 -8
108 79 61 132 -19 20 -740 450 -856 510 -44 23 -79 20 -107 -9z"/>
<path d="M3110 5098 c-28 -31 -26 -83 5 -113 l24 -25 686 0 685 0 0 -922 0
-922 -168 167 c-148 147 -172 167 -201 167 -43 0 -81 -38 -81 -82 0 -29 26
-58 243 -276 133 -134 252 -248 265 -253 16 -6 33 -4 55 5 18 8 137 119 265
248 227 229 232 235 232 275 0 33 -5 46 -26 62 -57 45 -73 35 -251 -141 l-163
-162 -2 976 c-3 944 -4 977 -22 997 -19 21 -19 21 -772 21 l-753 0 -21 -22z"/>
</g>
</svg>
