<?xml version="1.0" standalone="no"?>
<!DOCTYPE svg PUBLIC "-//W3C//DTD SVG 20010904//EN"
 "http://www.w3.org/TR/2001/REC-SVG-20010904/DTD/svg10.dtd">
<svg version="1.0" xmlns="http://www.w3.org/2000/svg"
 width="512.000000pt" height="512.000000pt" viewBox="0 0 512.000000 512.000000"
 preserveAspectRatio="xMidYMid meet">
<metadata>
Created by potrace 1.16, written by Peter Selinger 2001-2019
</metadata>
<g transform="translate(0.000000,512.000000) scale(0.100000,-0.100000)"
fill="#000000" stroke="none">
<path d="M1889 5097 c-19 -12 -44 -42 -56 -67 -21 -40 -23 -59 -23 -185 0
-142 15 -235 44 -280 12 -18 11 -25 -2 -50 -40 -76 -42 -115 -42 -841 l0 -702
-27 -7 c-75 -18 -133 -103 -133 -194 0 -62 18 -101 72 -158 l40 -41 -30 -39
c-38 -47 -69 -115 -78 -171 l-7 -42 -243 0 -244 0 2 326 3 327 55 13 c189 48
352 206 412 399 19 60 22 94 23 240 0 110 -5 189 -14 225 -65 266 -303 449
-583 450 l-68 0 0 -250 0 -250 -160 0 -160 0 0 250 0 250 -72 0 c-283 -1 -515
-174 -583 -435 -11 -43 -15 -109 -15 -237 0 -161 2 -184 25 -257 59 -187 228
-345 410 -384 l55 -11 0 -328 0 -328 -133 0 c-157 0 -214 -14 -274 -65 -23
-19 -51 -55 -62 -79 -21 -43 -21 -45 -19 -962 l3 -919 29 -60 c38 -77 124
-163 201 -201 l60 -29 2265 0 2265 0 60 29 c77 38 163 124 201 201 l29 60 3
919 c2 917 2 919 -19 962 -11 24 -39 60 -62 79 -66 57 -111 65 -359 65 l-218
0 0 400 c0 386 -1 402 -21 445 -22 46 -73 98 -115 117 l-24 11 0 249 c0 267 3
284 53 344 39 46 91 67 184 73 l81 6 6 -38 c4 -23 20 -52 42 -77 45 -50 104
-64 240 -58 114 5 151 19 189 75 l25 38 0 471 0 471 -22 33 c-47 68 -65 75
-211 78 -121 3 -136 1 -177 -20 -47 -24 -90 -83 -90 -125 l0 -23 -554 0 c-595
0 -632 -3 -782 -54 -179 -61 -407 -214 -453 -305 -46 -91 -34 -178 34 -247 43
-42 114 -69 161 -59 10 2 31 6 46 10 15 3 53 26 84 51 91 74 153 99 254 99 75
0 93 -4 152 -32 84 -39 155 -109 194 -188 l29 -60 2 -355 3 -355 -47 -30 c-28
-18 -60 -50 -78 -79 l-30 -49 -3 -409 -3 -408 -159 0 -160 0 0 268 0 268 64
42 c84 55 158 139 202 227 113 229 70 491 -110 671 -230 230 -594 230 -821 0
-121 -122 -169 -243 -169 -416 1 -87 5 -118 26 -177 48 -135 122 -232 234
-305 l64 -42 0 -268 0 -268 -159 0 -158 0 -7 42 c-9 56 -40 124 -77 171 l-31
38 45 48 c53 57 71 105 65 177 -6 73 -45 129 -109 158 l-49 21 0 691 c0 705
-3 763 -39 837 l-19 38 26 57 c26 55 27 63 27 232 0 196 -7 222 -75 267 -30
21 -44 23 -175 23 -131 0 -145 -2 -176 -23z m251 -272 c0 -161 -13 -195 -76
-195 -62 0 -74 32 -74 194 l0 126 75 0 75 0 0 -125z m2810 -445 l0 -410 -80 0
-80 0 0 410 0 410 80 0 80 0 0 -410z m-352 224 c22 -15 22 -19 22 -229 0 -251
9 -235 -130 -245 -101 -7 -177 -38 -243 -99 -49 -45 -102 -136 -112 -193 l-7
-38 -79 0 -79 0 0 78 c-1 171 -57 310 -171 423 -109 109 -233 159 -395 159
-136 0 -227 -31 -337 -117 -56 -43 -87 -50 -87 -20 0 37 182 173 295 220 176
72 203 75 790 76 447 1 513 -1 533 -15z m-2472 -189 c12 -29 14 -146 14 -735
l0 -700 -75 0 -75 0 0 700 c0 804 -3 770 75 770 43 0 47 -2 61 -35z m-1636
-545 l0 -240 335 0 335 0 0 240 c0 185 3 240 13 240 6 0 40 -13 75 -30 82 -38
155 -112 195 -198 l32 -67 0 -181 0 -180 -38 -76 c-75 -152 -218 -238 -398
-238 l-49 0 0 -660 0 -660 -160 0 -160 0 0 659 0 658 -88 6 c-140 9 -244 60
-322 158 -66 84 -83 143 -88 305 -6 207 23 299 125 401 40 40 150 103 181 103
9 0 12 -55 12 -240z m2697 -102 c227 -79 336 -335 235 -551 -50 -108 -145
-187 -274 -231 -17 -5 -18 -42 -18 -586 l0 -580 -75 0 -75 0 0 580 c0 544 -1
581 -17 586 -130 44 -225 123 -276 232 -29 61 -32 75 -32 167 0 88 3 107 28
159 94 201 305 294 504 224z m933 -298 l0 -160 -75 0 -75 0 0 160 0 160 75 0
75 0 0 -160z m145 -365 l25 -24 0 -631 0 -630 -245 0 -245 0 0 620 c0 529 2
625 15 650 8 15 20 30 27 33 7 3 100 6 206 6 192 1 193 1 217 -24z m-1965
-320 c10 -12 2 -25 -46 -75 l-57 -60 -131 0 -132 0 -57 58 c-91 92 -90 92 183
92 188 0 230 -3 240 -15z m-66 -336 c15 -11 37 -40 49 -62 21 -40 22 -56 25
-304 l3 -263 -245 0 -246 0 0 241 c0 142 5 258 11 284 6 24 27 62 46 84 l35
41 147 0 c135 0 151 -2 175 -21z m-1744 -469 l0 -160 -160 0 -160 0 0 135 c0
131 1 137 25 160 23 24 29 25 160 25 l135 0 0 -160z m1160 0 l0 -160 -245 0
-245 0 0 160 0 160 245 0 245 0 0 -160z m1150 0 l0 -160 -160 0 -160 0 0 160
0 160 160 0 160 0 0 -160z m830 0 l0 -160 -160 0 -160 0 0 160 0 160 160 0
160 0 0 -160z m1295 135 c24 -23 25 -29 25 -160 l0 -135 -245 0 -245 0 0 160
0 160 220 0 221 0 24 -25z m-3115 -545 l0 -80 -820 0 -820 0 0 80 0 80 820 0
820 0 0 -80z m1320 -80 l0 -160 -570 0 -570 0 0 160 0 160 570 0 570 0 0 -160z
m1820 80 l0 -80 -820 0 -820 0 0 80 0 80 820 0 820 0 0 -80z m-3295 -428 l0
-178 37 -76 c45 -91 103 -147 196 -191 l67 -32 590 -3 c584 -3 591 -2 650 19
114 41 186 107 239 219 l31 65 0 177 0 178 743 0 743 0 -3 -487 -3 -488 -28
-47 c-31 -53 -79 -94 -134 -114 -56 -20 -4390 -20 -4446 0 -55 20 -103 61
-134 114 l-28 47 -3 488 -3 487 743 0 743 0 0 -178z m262 22 c26 -11 151 -14
635 -14 377 0 617 4 640 10 21 6 51 27 72 50 l36 40 0 -98 c0 -129 -18 -187
-73 -245 -76 -78 -68 -77 -667 -77 -597 0 -590 -1 -666 76 -56 55 -74 116 -74
246 l0 99 32 -37 c18 -20 47 -43 65 -50z"/>
<path d="M2990 3631 c-69 -22 -132 -75 -163 -136 -66 -132 10 -307 152 -349
68 -20 84 -20 150 0 61 18 123 70 154 128 30 57 30 165 0 221 -27 51 -67 92
-117 117 -43 22 -136 32 -176 19z m117 -193 c14 -13 23 -33 23 -50 0 -36 -40
-78 -75 -78 -14 0 -37 11 -50 25 -70 69 30 170 102 103z"/>
</g>
</svg>
