<?xml version="1.0" standalone="no"?>
<!DOCTYPE svg PUBLIC "-//W3C//DTD SVG 20010904//EN"
 "http://www.w3.org/TR/2001/REC-SVG-20010904/DTD/svg10.dtd">
<svg version="1.0" xmlns="http://www.w3.org/2000/svg"
 width="512.000000pt" height="512.000000pt" viewBox="0 0 512.000000 512.000000"
 preserveAspectRatio="xMidYMid meet">
<metadata>
Created by potrace 1.16, written by Peter Selinger 2001-2019
</metadata>
<g transform="translate(0.000000,512.000000) scale(0.100000,-0.100000)"
fill="#000000" stroke="none">
<path d="M1103 5096 l-28 -24 -3 -256 -3 -256 -340 0 -340 0 -24 -25 c-18 -17
-25 -35 -25 -64 0 -22 81 -522 180 -1113 99 -590 179 -1079 178 -1086 -2 -7
-39 -25 -83 -40 -120 -40 -227 -106 -325 -199 -192 -182 -290 -408 -290 -668
0 -258 96 -482 282 -661 186 -178 398 -259 662 -252 l125 3 3 -203 3 -204 28
-24 28 -24 1965 0 1966 0 29 29 29 29 0 2505 0 2504 -26 27 -27 26 -1968 0
-1968 0 -28 -24z m3827 -2536 l0 -2370 -1835 0 -1835 0 0 160 0 160 78 39
c251 126 425 359 477 636 22 116 16 318 -13 420 -72 261 -220 445 -457 571
l-85 46 0 1354 0 1354 1835 0 1835 0 0 -2370z m-3860 760 l0 -1050 -82 6 c-46
4 -85 9 -88 11 -3 3 -84 472 -180 1044 l-176 1039 263 0 263 0 0 -1050z m24
-1250 c254 -65 461 -272 526 -526 27 -103 27 -254 1 -356 -83 -324 -370 -549
-701 -549 -160 0 -295 43 -425 136 -124 88 -214 210 -268 362 -30 83 -32 97
-31 228 0 127 2 147 27 220 85 244 272 420 517 486 92 25 254 25 354 -1z"/>
<path d="M2120 4650 c-24 -24 -34 -62 -26 -95 4 -14 15 -34 26 -45 20 -20 37
-20 974 -20 924 0 955 1 977 19 20 16 24 29 24 71 0 42 -4 55 -24 71 -22 18
-53 19 -977 19 -937 0 -954 0 -974 -20z"/>
<path d="M1549 4194 c-24 -25 -24 -29 -27 -237 -4 -246 1 -290 33 -323 l24
-24 1515 0 1515 0 28 24 28 24 0 255 0 255 -24 26 -24 26 -1522 0 -1522 0 -24
-26z m2931 -274 l0 -120 -1385 0 -1385 0 0 120 0 120 1385 0 1385 0 0 -120z"/>
<path d="M1568 3314 c-50 -27 -54 -118 -7 -156 20 -17 108 -18 1534 -18 1508
0 1512 0 1538 20 52 41 40 138 -19 160 -16 6 -592 10 -1522 10 -1302 -1 -1501
-3 -1524 -16z"/>
<path d="M2839 2845 c-15 -8 -32 -29 -38 -46 -15 -43 -15 -455 0 -498 22 -64
-19 -61 928 -61 646 0 867 3 886 12 50 23 55 47 55 293 0 240 -7 282 -48 304
-15 8 -285 11 -889 11 -735 -1 -872 -3 -894 -15z m1641 -295 l0 -120 -750 0
-750 0 0 120 0 120 750 0 750 0 0 -120z"/>
<path d="M1594 2813 c-63 -13 -90 -109 -44 -158 l23 -25 504 0 504 0 24 25
c34 33 34 93 1 132 l-24 28 -484 1 c-265 1 -493 0 -504 -3z"/>
<path d="M1585 2471 c-59 -25 -78 -111 -34 -157 l22 -24 504 0 504 0 24 25
c34 33 34 93 1 132 l-24 28 -489 2 c-268 1 -497 -2 -508 -6z"/>
<path d="M1983 1956 c-37 -32 -40 -103 -5 -138 l23 -23 1293 -3 c817 -1 1304
1 1320 7 59 23 71 120 19 161 -26 20 -32 20 -1324 20 l-1298 0 -28 -24z"/>
<path d="M1988 1520 c-9 -6 -22 -26 -28 -45 -14 -42 1 -100 30 -115 26 -14
2614 -14 2640 0 29 15 44 73 30 115 -6 19 -20 40 -30 45 -25 14 -2619 13
-2642 0z"/>
<path d="M1988 1070 c-9 -6 -22 -26 -28 -45 -14 -42 1 -100 30 -115 26 -14
2614 -14 2640 0 10 5 24 26 30 45 14 42 -1 100 -30 115 -25 14 -2619 13 -2642
0z"/>
<path d="M1550 605 c-16 -17 -23 -36 -23 -65 0 -29 7 -48 23 -65 l23 -25 1519
0 c986 0 1526 3 1538 10 10 5 24 26 30 45 14 42 -1 100 -30 115 -12 7 -552 10
-1538 10 l-1519 0 -23 -25z"/>
<path d="M1245 1720 c-11 -5 -128 -117 -260 -249 l-240 -241 -73 73 c-69 68
-75 72 -118 72 -38 0 -50 -5 -70 -28 -16 -18 -24 -40 -24 -64 0 -33 11 -48
117 -154 127 -129 155 -144 209 -116 16 9 154 141 307 294 264 266 277 281
277 317 0 48 -13 72 -50 91 -32 17 -46 18 -75 5z"/>
</g>
</svg>
