<svg width="50" height="50" viewBox="0 0 50 50" fill="none" xmlns="http://www.w3.org/2000/svg">
<path d="M44.3032 2.1156C44.3915 2.0269 44.4572 1.91829 44.4947 1.79891C44.5323 1.67952 44.5407 1.55286 44.5191 1.42958C44.4975 1.30629 44.4466 1.19 44.3707 1.0905C44.2947 0.990991 44.196 0.91118 44.0828 0.857783C42.3369 0.0332524 40.3785 -0.230522 38.4766 0.102686C36.5747 0.435894 34.8226 1.34974 33.461 2.71872C30.8078 5.38903 29.8813 9.58278 31.1188 13.089L13.0891 31.1187C12.0874 30.7656 11.0324 30.588 9.97034 30.5937C7.29221 30.5937 4.69534 31.6593 2.8469 33.5187C1.49005 34.8697 0.572963 36.5991 0.215804 38.4803C-0.141356 40.3614 0.0780729 42.3066 0.845338 44.0609C0.89563 44.1783 0.974065 44.2816 1.07372 44.3615C1.17337 44.4415 1.29117 44.4957 1.41672 44.5193C1.54228 44.5429 1.67172 44.5353 1.79361 44.497C1.91551 44.4588 2.02611 44.3911 2.11565 44.3L7.57034 38.8172C7.92971 38.4547 8.5094 38.4062 8.8094 38.7109L11.1641 41.175C11.5063 41.5203 11.4907 42.0531 11.1297 42.4172L5.69534 47.8859C5.60702 47.9744 5.54129 48.0829 5.50371 48.2022C5.46612 48.3215 5.45778 48.4481 5.47938 48.5712C5.50098 48.6944 5.55189 48.8106 5.62783 48.9099C5.70376 49.0093 5.80247 49.089 5.91565 49.1422C7.18011 49.7454 8.56311 50.0593 9.96409 50.0609C12.4203 50.0609 14.7531 49.0734 16.5375 47.2797C19.1906 44.6109 20.1172 40.4172 18.8781 36.9109L36.9078 18.8797C37.9101 19.2326 38.9656 19.4102 40.0281 19.4047C42.7063 19.4047 45.3032 18.339 47.1516 16.4797C48.5084 15.1286 49.4255 13.3993 49.7827 11.5181C50.1398 9.63695 49.9204 7.69178 49.1531 5.93747C49.1029 5.82003 49.0244 5.71678 48.9248 5.63683C48.8251 5.55689 48.7073 5.50271 48.5818 5.47908C48.4562 5.45546 48.3268 5.46311 48.2049 5.50136C48.083 5.53961 47.9724 5.60728 47.8828 5.69841L42.4282 11.1812C42.2596 11.3441 42.0335 11.4339 41.7992 11.431C41.5648 11.428 41.341 11.3327 41.1766 11.1656L38.8344 8.82341C38.7508 8.74319 38.6843 8.64693 38.6388 8.5404C38.5934 8.43387 38.5698 8.31926 38.5697 8.20343C38.5695 8.08759 38.5928 7.97292 38.638 7.86628C38.6832 7.75964 38.7495 7.66321 38.8328 7.58278L44.3032 2.1156ZM37.7281 9.9281L40.0703 12.2703C41.0063 13.2109 42.6094 13.2156 43.536 12.2843L48.1141 7.68435C48.4767 9.03589 48.4764 10.4592 48.1132 11.8106C47.75 13.1619 47.0367 14.3936 46.0453 15.3812C44.4875 16.9484 42.2969 17.8453 40.0297 17.8453C38.9625 17.8453 37.9516 17.6453 37.025 17.2515C36.8818 17.1905 36.7236 17.1737 36.5708 17.2032C36.418 17.2327 36.2774 17.3072 36.1672 17.4172L17.4172 36.1672C17.3075 36.2768 17.233 36.4167 17.2032 36.569C17.1734 36.7212 17.1897 36.8789 17.25 37.0218C18.5047 40.0062 17.7407 43.8578 15.4328 46.1797C14.4384 47.1883 13.1865 47.9049 11.8131 48.2515C10.4398 48.598 8.99769 48.5613 7.64378 48.1453L12.2391 43.5203C13.2094 42.5437 13.225 41.0297 12.2844 40.0859L9.93128 37.6218C9.02346 36.7078 7.4094 36.764 6.46565 37.7187L1.88753 42.3187C1.52489 40.9672 1.52519 39.5439 1.88842 38.1925C2.25164 36.8411 2.96492 35.6095 3.95628 34.6218C5.51409 33.0547 7.70471 32.1578 9.9719 32.1578C11.0391 32.1578 12.05 32.3578 12.9766 32.7515C13.1197 32.813 13.278 32.83 13.4309 32.8005C13.5839 32.7709 13.7244 32.6962 13.8344 32.5859L32.5844 13.8359C32.6941 13.7262 32.7687 13.5863 32.7984 13.4341C32.8282 13.2818 32.8119 13.1241 32.7516 12.9812C31.4969 9.99684 32.261 6.14372 34.5688 3.82185C35.5628 2.81419 36.814 2.0982 38.1864 1.75166C39.5588 1.40512 40.9999 1.44128 42.3532 1.85622L37.7281 6.48278C37.4994 6.70761 37.3178 6.97572 37.1938 7.27148C37.0698 7.56724 37.006 7.88474 37.006 8.20544C37.006 8.52614 37.0698 8.84363 37.1938 9.1394C37.3178 9.43516 37.4994 9.70327 37.7281 9.9281Z" fill="#515151"/>
<path d="M45.6407 47.8859C45.4669 48.0531 45.235 48.1462 44.9939 48.1456C44.7528 48.145 44.5214 48.0508 44.3485 47.8828L28.6766 32.2578C28.5272 32.1243 28.3324 32.0531 28.1321 32.0589C27.9319 32.0647 27.7414 32.147 27.6001 32.289C27.4587 32.431 27.3771 32.6217 27.3722 32.822C27.3673 33.0223 27.4393 33.2169 27.5735 33.3656L43.2438 48.9875C43.7125 49.4578 44.3344 49.7172 44.9969 49.7172C45.6594 49.7172 46.2813 49.4578 46.7594 48.9766L48.9922 46.6438C49.2205 46.4185 49.4017 46.1501 49.5253 45.8542C49.649 45.5582 49.7126 45.2407 49.7124 44.92C49.7123 44.5993 49.6484 44.2818 49.5245 43.986C49.4006 43.6902 49.2191 43.4219 48.9907 43.1969L33.3657 27.5719C33.2183 27.4296 33.021 27.3508 32.8161 27.3526C32.6113 27.3544 32.4153 27.4365 32.2705 27.5814C32.1256 27.7262 32.0435 27.9222 32.0417 28.127C32.0399 28.3319 32.1187 28.5292 32.261 28.6766L47.8844 44.3C48.2422 44.6594 48.2422 45.1813 47.8735 45.5531L45.6407 47.8859ZM9.1469 4.91563L4.4594 0.228129C4.3129 0.0816673 4.11422 -0.000610352 3.90706 -0.000610352C3.6999 -0.000610352 3.50122 0.0816673 3.35472 0.228129L0.229716 3.35313C0.0832542 3.49963 0.000976562 3.69831 0.000976562 3.90547C0.000976562 4.11263 0.0832542 4.31131 0.229716 4.45782L4.91722 9.14532C5.06392 9.29123 5.26233 9.37326 5.46924 9.37355C5.67615 9.37385 5.87479 9.29237 6.0219 9.14688L7.03128 8.13594L18.9782 20.0828C19.0501 20.1575 19.1362 20.2172 19.2315 20.2582C19.3268 20.2993 19.4292 20.321 19.533 20.322C19.6367 20.3231 19.7396 20.3035 19.8357 20.2643C19.9317 20.2252 20.019 20.1673 20.0925 20.094C20.1659 20.0208 20.2241 19.9337 20.2635 19.8377C20.3029 19.7417 20.3228 19.6389 20.3221 19.5352C20.3213 19.4314 20.2999 19.3289 20.2591 19.2335C20.2183 19.1382 20.1589 19.0519 20.0844 18.9797L8.13597 7.03125L9.14534 6.02188C9.2182 5.94941 9.27604 5.86328 9.31556 5.76842C9.35508 5.67356 9.3755 5.57184 9.37564 5.46908C9.37579 5.36632 9.35566 5.26454 9.31641 5.16957C9.27716 5.0746 9.21956 4.9883 9.1469 4.91563ZM5.46878 7.48907L1.88597 3.90625L3.90628 1.88594L7.48909 5.46875L5.46878 7.48907Z" fill="#515151"/>
</svg>
