<svg width="50" height="50" viewBox="0 0 50 50" fill="none" xmlns="http://www.w3.org/2000/svg">
<g clip-path="url(#clip0_807_26)">
<path d="M1.0135 8.8219C-0.315334 10.1469 -0.0313677 12.0125 1.02605 13.0641C1.06841 13.1047 5.31535 17.1453 11.2881 23.0938C11.3607 23.1669 11.4472 23.225 11.5425 23.2646C11.6379 23.3042 11.7401 23.3246 11.8434 23.3246C11.9467 23.3246 12.049 23.3042 12.1443 23.2646C12.2397 23.225 12.3262 23.1669 12.3988 23.0938C12.5459 22.9473 12.6285 22.7486 12.6285 22.5414C12.6285 22.3343 12.5459 22.1356 12.3988 21.9891C11.4983 21.0922 10.6417 20.2438 9.829 19.4406L12.3219 16.9578C12.4648 16.8105 12.5439 16.6131 12.5421 16.4083C12.5403 16.2035 12.4578 16.0075 12.3124 15.8627C12.1669 15.7178 11.9702 15.6357 11.7645 15.6339C11.5588 15.6321 11.3607 15.7108 11.2127 15.8531L8.71353 18.3422C7.50675 17.1555 6.2961 15.9727 5.08159 14.7938L10.7531 9.14534C10.896 8.99799 10.975 8.80065 10.9732 8.5958C10.9715 8.39096 10.889 8.19502 10.7435 8.05017C10.5981 7.90532 10.4013 7.82315 10.1956 7.82137C9.98997 7.81959 9.79182 7.89834 9.64388 8.04065L3.95514 13.7063C2.80045 12.5922 2.13525 11.9594 2.12426 11.9485C1.79323 11.6188 1.35865 10.6906 2.12426 9.92815L9.96863 2.11565C10.2714 1.8094 11.0778 1.20159 11.9627 2.07815C12.0019 2.1219 15.9633 6.60315 22.0097 12.625C22.1577 12.7673 22.3558 12.8461 22.5615 12.8443C22.7672 12.8425 22.9639 12.7604 23.1094 12.6155C23.2548 12.4707 23.3373 12.2747 23.3391 12.0699C23.3409 11.865 23.2618 11.6677 23.1189 11.5203C17.1101 5.53752 13.1785 1.09065 13.1064 1.0094C11.6442 -0.443726 9.88078 -0.00778811 8.85944 1.0094L1.0135 8.8219ZM34.2862 37.7281C34.1391 37.5817 33.9396 37.4994 33.7316 37.4994C33.5236 37.4994 33.3241 37.5817 33.177 37.7281L30.6809 40.2125C29.8833 39.4075 29.0831 38.6048 28.2805 37.8047C28.1326 37.6624 27.9344 37.5837 27.7288 37.5854C27.5231 37.5872 27.3263 37.6694 27.1809 37.8142C27.0354 37.9591 26.9529 38.155 26.9512 38.3599C26.9494 38.5647 27.0284 38.7621 27.1713 38.9094C30.5327 42.2487 33.8424 45.6392 37.0992 49.0797C37.6373 49.6172 38.3747 49.9125 39.1748 49.9125C39.9984 49.9125 40.8315 49.5922 41.3477 49.0766L49.1889 41.175C50.1757 40.1922 50.2322 38.525 49.3113 37.6047L38.7904 27.1281C38.6425 26.9858 38.4443 26.9071 38.2386 26.9089C38.033 26.9107 37.8362 26.9928 37.6908 27.1377C37.5453 27.2825 37.4628 27.4785 37.461 27.6833C37.4593 27.8881 37.5383 28.0855 37.6812 28.2328L48.2021 38.7094C48.5159 39.0219 48.4562 39.6969 48.0781 40.0735L40.2353 47.975C40.0549 48.1563 39.6454 48.35 39.1748 48.35C38.9049 48.35 38.519 48.2844 38.2272 47.9922C38.2115 47.975 37.5541 47.2766 36.4136 46.0875L42.1305 40.3938C42.2734 40.2464 42.3525 40.0491 42.3507 39.8442C42.3489 39.6394 42.2664 39.4435 42.121 39.2986C41.9755 39.1538 41.7788 39.0716 41.5731 39.0698C41.3674 39.068 41.1693 39.1468 41.0213 39.2891L35.3279 44.9594C34.152 43.7421 32.9701 42.5307 31.7822 41.325L34.2862 38.8313C34.4328 38.6848 34.5151 38.4865 34.5151 38.2797C34.5151 38.0729 34.4328 37.8746 34.2862 37.7281ZM0.22279 49.7328C0.322895 49.8346 0.449043 49.9072 0.587583 49.9427C0.726123 49.9783 0.871781 49.9754 1.0088 49.9344L16.6975 45.2797C16.8236 45.243 16.9381 45.1746 17.0301 45.0813L43.8422 18.1985C43.8798 18.161 43.8987 18.1125 43.9269 18.0703L49.6627 12.3578C49.8907 12.1324 50.0717 11.8643 50.1952 11.5689C50.3187 11.2735 50.3823 10.9567 50.3823 10.6367C50.3823 10.3168 50.3187 9.99996 50.1952 9.70457C50.0717 9.40919 49.8907 9.14106 49.6627 8.91565L41.4496 0.737524C40.5272 -0.181226 38.9159 -0.181226 37.9934 0.737524L32.1274 6.57971C32.0898 6.61721 32.0694 6.66565 32.0411 6.7094L5.18827 33.4547C5.1005 33.5417 5.03487 33.6483 4.99687 33.7657L0.0392317 48.9453C-0.0053689 49.0808 -0.0118397 49.2258 0.0205227 49.3646C0.052885 49.5035 0.122842 49.6308 0.22279 49.7328ZM32.7267 8.23596L34.3568 9.8594L10.0031 34.1797L7.2937 33.5672L32.7267 8.23596ZM10.9821 35.4156L35.4675 10.9656L39.2893 14.7719L14.5827 39.0625H10.9821V35.4156ZM42.1776 17.65L16.6928 43.2031L15.7876 40.075L40.3985 15.8766L42.1776 17.65ZM6.26452 34.936L9.41325 35.6485V39.8438C9.41325 40.051 9.4959 40.2497 9.64301 40.3962C9.79012 40.5427 9.98964 40.625 10.1977 40.625H14.3144L15.3091 44.0625L1.99248 48.0141L6.26452 34.936ZM39.1042 1.84221C39.2707 1.68321 39.4924 1.59444 39.7231 1.59444C39.9538 1.59444 40.1755 1.68321 40.342 1.84221L48.5551 10.0219C48.637 10.1025 48.702 10.1986 48.7463 10.3045C48.7906 10.4103 48.8134 10.5239 48.8132 10.6386C48.8131 10.7533 48.79 10.8669 48.7455 10.9726C48.7009 11.0784 48.6356 11.1743 48.5535 11.2547L43.2648 16.5235L33.8155 7.11252L39.1042 1.84221Z" fill="#515151"/>
</g>
<defs>
<clipPath id="clip0_807_26">
<rect width="50" height="50" fill="white"/>
</clipPath>
</defs>
</svg>
